<svg xmlns="http://www.w3.org/2000/svg" width="1600" height="900" viewBox="0 0 1600 900">
<defs><linearGradient id="bg" x1="0" y1="0" x2="1" y2="1"><stop offset="0" stop-color="#061414"/><stop offset=".52" stop-color="#0c2520"/><stop offset="1" stop-color="#251116"/></linearGradient><pattern id="grid" width="42" height="42" patternUnits="userSpaceOnUse"><path d="M42 0L0 0 0 42" fill="none" stroke="#7bd7b4" stroke-opacity=".08" stroke-width="1"/></pattern></defs>
<rect width="1600" height="900" fill="url(#bg)"/><rect width="1600" height="900" fill="url(#grid)"/>
<text x="92" y="90" fill="#66e5b6" font-family="Courier New" font-size="22" letter-spacing="3">MICHEL-DV THREAT CASE STUDIES / CASE-004 / V1.0.0</text>
<text x="1450" y="88" text-anchor="end" fill="#d8efe6" font-family="Arial" font-size="20">CYBER ESPIONAGE / AIR-GAP OPERATIONS</text>
<g transform="translate(145 210)"><rect x="0" y="0" rx="24" width="445" height="270" fill="#0a2420" stroke="#58deb0" stroke-opacity=".65" stroke-width="2"/><text x="35" y="48" fill="#76e8bd" font-family="Courier New" font-size="20" font-weight="700">CONNECTED NETWORK</text><g fill="#102f29" stroke="#27b87d" stroke-width="3"><circle cx="90" cy="125" r="34"/><circle cx="220" cy="95" r="34"/><circle cx="340" cy="145" r="34"/><circle cx="215" cy="200" r="34"/></g><g fill="#fff" font-family="Courier New" font-size="20" font-weight="700" text-anchor="middle"><text x="90" y="132">DC</text><text x="220" y="102">OPS</text><text x="340" y="152">PROXY</text><text x="215" y="207">VFS</text></g></g>
<g transform="translate(1010 210)"><rect x="0" y="0" rx="24" width="445" height="270" fill="#171216" stroke="#ef6672" stroke-opacity=".7" stroke-width="2"/><text x="35" y="48" fill="#ff8c97" font-family="Courier New" font-size="20" font-weight="700">AIR-GAPPED NETWORK</text><g fill="#24161b" stroke="#d94d5d" stroke-width="3"><circle cx="100" cy="135" r="34"/><circle cx="230" cy="105" r="34"/><circle cx="300" cy="200" r="34"/></g><g fill="#fff" font-family="Courier New" font-size="20" font-weight="700" text-anchor="middle"><text x="100" y="142">WS</text><text x="230" y="112">DATA</text><text x="300" y="207">KEYS</text></g></g>
<line x1="800" y1="185" x2="800" y2="515" stroke="#899d96" stroke-width="2" stroke-dasharray="9 9"/><text x="800" y="170" text-anchor="middle" fill="#a8b9b4" font-family="Courier New" font-size="18">AIR GAP</text>
<g transform="translate(690 320)"><rect x="0" y="0" rx="14" width="205" height="95" fill="#0d1c1b" stroke="#e6f3ef" stroke-width="2"/><rect x="205" y="24" width="42" height="47" fill="#c8dad5"/><rect x="25" y="20" rx="8" width="95" height="55" fill="#27b87d"/><text x="72" y="44" text-anchor="middle" fill="#fff" font-family="Courier New" font-size="15" font-weight="700">HIDDEN</text><text x="72" y="64" text-anchor="middle" fill="#fff" font-family="Courier New" font-size="15" font-weight="700">VOLUME</text><circle cx="158" cy="48" r="9" fill="#d94d5d"/></g>
<path d="M590 370L683 370" stroke="#27b87d" stroke-width="4"/><polygon points="683,370 665,360 665,380" fill="#27b87d"/><path d="M938 370L1002 370" stroke="#d94d5d" stroke-width="4"/><polygon points="1002,370 984,360 984,380" fill="#d94d5d"/>
<text x="92" y="680" fill="#fff" font-family="Arial" font-size="66" font-weight="800">PROJECTSAURON / STRIDER</text><text x="92" y="748" fill="#e65b68" font-family="Arial" font-size="50" font-weight="800">AIR-GAP ESPIONAGE PLATFORM</text><text x="92" y="802" fill="#b7d6cc" font-family="Arial" font-size="26">Customized implants · memory-only execution · hidden removable-media storage</text>
<text x="1450" y="815" text-anchor="end" fill="#d8efe6" font-family="Arial" font-size="22" font-weight="700">@MICHEL-DV</text><text x="1450" y="852" text-anchor="end" fill="#7fa99a" font-family="Courier New" font-size="16">CC BY-NC-ND 4.0 · 2026</text>
</svg>
